# AST/ASF file generated using VICON BodyLanguage
# -----------------------------------------------
:version 1.10
:name VICON
:units
  mass 1.0
  length 0.45
  angle deg
:documentation
   .ast/.asf automatically generated from VICON data using
   VICON BodyBuilder and BodyLanguage model FoxedUp or BRILLIANT.MOD
:root
   order TX TY TZ RX RY RZ
   axis XYZ
   position 0 0 0  
   orientation 0 0 0 
:bonedata
  begin
     id 1 
     name lhipjoint
     direction 0.711131 -0.61297 0.344326 
     length 2.29162 
     axis 0 0 0  XYZ
  end
  begin
     id 2 
     name lfemur
     direction 0.34202 -0.939693 0  
     length 6.71424  
     axis 0 0 20  XYZ
    dof rx ry rz
    limits (-160.0 20.0)
           (-70.0 70.0)
           (-60.0 70.0)
  end
  begin
     id 3 
     name ltibia
     direction 0.34202 -0.939693 0   
     length 6.7087   
     axis 0 0 20   XYZ
    dof rx
    limits (-10.0 170.0)
  end
  begin
     id 4 
     name lfoot
     direction 0.0230374 -0.0632947 0.997729   
     length 1.56743   
     axis -90 7.62852e-016 20   XYZ
    dof rx rz
    limits (-45.0 90.0)
           (-70.0 20.0)
  end
  begin
     id 5 
     name ltoes
     direction 1.53585e-011 -4.21885e-011 1   
     length 0.802914   
     axis -90 7.62852e-016 20   XYZ
    dof rx
    limits (-90.0 20.0)
  end
  begin
     id 6 
     name rhipjoint
     direction -0.733192 -0.592884 0.333043   
     length 2.36925  
     axis 0 0 0  XYZ 
  end
  begin
     id 7 
     name rfemur
     direction -0.34202 -0.939693 0   
     length 6.67027   
     axis 0 0 -20   XYZ
    dof rx ry rz
    limits (-160.0 20.0)
           (-70.0 70.0)
           (-70.0 60.0)
  end
  begin
     id 8 
     name rtibia
     direction -0.34202 -0.939693 0   
     length 6.6862   
     axis 0 0 -20   XYZ
    dof rx
    limits (-10.0 170.0)
 end
 begin
     id 9 
     name rfoot
     direction -0.0949739 -0.260939 0.960672   
     length 1.67698  
     axis -90 -7.62852e-016 -20   XYZ
    dof rx rz
    limits (-45.0 90.0)
           (-20.0 70.0)
  end
  begin
     id 10 
     name rtoes
     direction -1.5353e-011 -4.21868e-011 1   
     length 0.846298   
     axis -90 -7.62852e-016 -20   XYZ
    dof rx
    limits (-90.0 20.0)
  end
  begin
     id 11 
     name lowerback
     direction -0.0206828 0.999785 -0.00109866   
     length 2.04382   
     axis 0 0 0   XYZ
    dof rx ry rz
    limits (-20.0 45.0)
           (-30.0 30.0)
           (-30.0 30.0)
  end
  begin
     id 12 
     name upperback
     direction -0.0105003 0.999727 -0.0208904   
     length 2.04538   
     axis 0 0 0   XYZ
    dof rx ry rz
    limits (-20.0 45.0)
           (-30.0 30.0)
           (-30.0 30.0)
  end
  begin
     id 13 
     name thorax
     direction -0.000416255 0.999808 -0.0196023   
     length 2.0399   
     axis 0 0 0   XYZ
    dof rx ry rz
    limits (-20.0 45.0)
           (-30.0 30.0)
           (-30.0 30.0)
  end
  begin
     id 14 
     name lowerneck
     direction 0.0627861 0.989205 0.13241   
     length 1.46207   
     axis 0 0 0   XYZ
    dof rx ry rz
    limits (-20.0 45.0)
           (-30.0 30.0)
           (-30.0 30.0)
  end
  begin
     id 15 
     name upperneck
     direction 0.00627179 0.994526 0.104303   
     length 1.41419   
     axis 0 0 0   XYZ
    dof rx ry rz
    limits (-20.0 45.0)
           (-30.0 30.0)
           (-30.0 30.0)
  end
  begin
     id 16
     name head
     direction -0.00443838 0.999688 0.0245968  
     length 1.50718  
     axis 0 0 0   XYZ
    dof rx ry rz
    limits (-20.0 45.0)
           (-30.0 30.0)
           (-30.0 30.0)
  end
  begin
     id 17 
     name lclavicle
     direction 0.758742 0.650995 -0.0227258  
     length 2.86888  
     axis 0 0 0   XYZ
    dof ry rz
    limits (-20.0 10.0)
           (0.0 20.0)
  end
  begin
     id 18 
     name lhumerus
     direction 1 -4.48962e-011 1.06664e-027   
     length 4.65776   
     axis -180 -30 -90   XYZ
    dof rx ry rz
    limits (-60.0 90.0)
           (-90.0 90.0)
           (-90.0 90.0)
  end
  begin
     id 19
     name lradius
     direction 1 -4.48968e-011 1.40404e-026   
     length 3.55539   
     axis -180 -30 -90   XYZ
    dof rx
    limits (-10.0 170.0)
  end
  begin
     id 20
     name lwrist
     direction 1 -4.48976e-011 3.32647e-026   
     length 1.77769   
     axis -2.20186e-014 90 90   XYZ
    dof ry
    limits (-180.0 0.0)
 end
  begin
     id 21 
     name lhand
     direction 1 -4.48982e-011 6.65293e-026   
     length 0.707264   
     axis -4.24514e-014 90 90   XYZ
    dof rx rz
    limits (-90.0 90.0)
           (-45.0 45.0)
  end
  begin
     id 22 
     name lfingers
     direction 1 -4.48966e-011 1.33059e-025   
     length 0.570215   
     axis -8.49028e-014 90 90   XYZ
    dof rx
    limits (0.0 90.0)
  end
  begin
     id 23
     name lthumb
     direction 0.707107 -6.3493e-011 0.707107   
     length 0.818718   
     axis -90 45 2.85299e-015   XYZ
    dof rx rz
    limits (-45.0 45.0)
           (-45.0 45.0)
  end
  begin
     id 24 
     name rclavicle
     direction -0.870343 0.482028 -0.100759   
     length 3.2251  
     axis 0 0 0   XYZ 
    dof ry rz
    limits (-10.0 20.0)
           (-20.0 0.0)
  end
  begin
     id 25 
     name rhumerus
     direction -1 -4.48974e-011 -9.45849e-028  
     length 4.71925   
     axis -180 30 90   XYZ
    dof rx ry rz
    limits (-90.0 60.0)
           (-90.0 90.0)
           (-90.0 90.0)
  end
  begin
     id 26 
     name rradius
     direction -1 -4.48965e-011 1.17607e-026   
     length 3.5699   
     axis -180 30 90   XYZ
    dof rx
    limits (-10.0 170.0)
  end
  begin
     id 27 
     name rwrist
     direction -1 -4.48968e-011 3.32647e-026   
     length 1.78495   
     axis -2.20186e-014 -90 -90   XYZ
    dof ry
    limits (-180.0 0.0)
  end
  begin
     id 28
     name rhand
     direction -1 -4.48995e-011 6.65293e-026   
     length 0.507757   
     axis -4.24514e-014 -90 -90   XYZ
    dof rx rz
    limits (-90.0 90.0)
           (-45.0 45.0)
  end
  begin
     id 29
     name rfingers
     direction -1 -4.48864e-011 1.33059e-025   
     length 0.409367   
     axis -8.49028e-014 -90 -90   XYZ
    dof rx
    limits (0.0 90.0)
  end
  begin
     id 30
     name rthumb
     direction -0.707107 -6.3494e-011 0.707107   
     length 0.587771   
     axis -90 -45 -2.85299e-015   XYZ
    dof rx rz
    limits (-45.0 45.0)
           (-45.0 45.0)
  end
:hierarchy
  begin
    root lhipjoint rhipjoint lowerback
    lhipjoint lfemur
    lfemur ltibia
    ltibia lfoot
    lfoot ltoes
    rhipjoint rfemur
    rfemur rtibia
    rtibia rfoot
    rfoot rtoes
    lowerback upperback
    upperback thorax
    thorax lowerneck lclavicle rclavicle
    lowerneck upperneck
    upperneck head
    lclavicle lhumerus
    lhumerus lradius
    lradius lwrist
    lwrist lhand lthumb
    lhand lfingers
    rclavicle rhumerus
    rhumerus rradius
    rradius rwrist
    rwrist rhand rthumb
    rhand rfingers
  end

#!OML:ASF E:\Steps\Project 1\Capture day 1\Session 2\Subject.ASF
:FULLY-SPECIFIED
:DEGREES
88
root 6.41302 16.3361 31.5997 -153.171 2.66665 178.158
lowerback -26.5804 -2.06975 -6.87979
upperback -0.3704 -0.207391 -0.0088926
thorax 14.5901 -0.430098 3.92223
lowerneck -2.89271 -2.14956 -1.77931
upperneck 15.192 -2.64512 4.1432
head 5.11389 -0.848565 1.46747
rclavicle -1.98785e-015 -2.5842e-014
rhumerus -41.0437 -20.3188 -73.5246
rradius 34.5035
rwrist -2.13675
rhand -9.13584 -48.0879
rfingers 7.12502
rthumb 16.8157 -77.3798
lclavicle -1.98785e-015 -2.5842e-014
lhumerus -32.4171 7.90443 77.0838
lradius 25.2793
lwrist -2.26982
lhand -18.133 -14.416
lfingers 7.12502
lthumb 8.14196 15.4071
rfemur -27.2846 4.93955 19.6776
rtibia 9.2101
rfoot -18.2963 -8.11236
rtoes -27.458
lfemur -26.6605 -8.1823 -20.0322
ltibia 10.0183
lfoot -9.44241 1.7111
ltoes -37.8104
89
root 6.42672 16.3374 31.5949 -153.244 2.50563 178.085
lowerback -26.4208 -2.16409 -6.85991
upperback -0.462932 -0.339139 -0.0454966
thorax 14.4061 -0.472484 3.81768
lowerneck -3.05515 -2.19193 -1.58225
upperneck 15.8029 -2.66391 3.98186
head 5.32689 -0.827585 1.38585
rclavicle 1.07841e-014 2.98177e-015
rhumerus -41.2875 -20.4029 -73.5161
rradius 34.4962
rwrist -1.94844
rhand -9.3135 -47.8228
rfingers 7.12502
rthumb 16.6446 -77.1291
lclavicle 1.07841e-014 2.98177e-015
lhumerus -32.5774 7.77316 77.0181
lradius 25.2536
lwrist -2.13501
lhand -18.219 -14.6477
lfingers 7.12502
lthumb 8.059 15.1786
rfemur -27.1519 5.0007 19.6622
rtibia 9.22403
rfoot -18.4922 -8.37348
rtoes -27.3921
lfemur -26.6136 -8.14941 -20.0642
ltibia 10.0831
lfoot -9.4137 1.62419
ltoes -38.9759
90
root 6.43969 16.3365 31.587 -153.358 2.51958 178.061
lowerback -26.376 -2.15201 -6.8314
upperback -0.448703 -0.331395 -0.0839778
thorax 14.3967 -0.46592 3.75897
lowerneck -3.09827 -2.15331 -1.39783
upperneck 15.9106 -2.58127 3.68607
head 5.3594 -0.79197 1.26764
rclavicle -5.51627e-015 -2.5842e-015
rhumerus -41.4065 -20.4796 -73.5005
rradius 34.5305
rwrist -1.87673
rhand -9.38761 -47.9418
rfingers 7.12502
rthumb 16.5733 -77.2541
lclavicle -5.51627e-015 -2.5842e-015
lhumerus -32.5446 7.80431 76.9964
lradius 25.1865
lwrist -2.33527
lhand -18.3598 -14.5566
lfingers 7.12502
lthumb 7.92307 15.2749
rfemur -27.0736 5.08301 19.6808
rtibia 9.40191
rfoot -18.7569 -8.41037
rtoes -27.0532
lfemur -26.4756 -8.10544 -20.0568
ltibia 10.0606
lfoot -9.4157 1.61176
ltoes -38.4604
91
root 6.45142 16.3345 31.5804 -153.412 2.58573 178.084
lowerback -26.4502 -2.13392 -6.77799
upperback -0.367593 -0.326025 -0.0719853
thorax 14.5337 -0.471055 3.74338
lowerneck -3.29259 -2.28662 -1.22097
upperneck 16.0538 -2.75113 3.46122
head 5.43656 -0.876444 1.15704
rclavicle 4.82053e-015 1.61016e-014
rhumerus -41.1831 -20.4236 -73.576
rradius 34.4234
rwrist -2.09141
rhand -9.62882 -48.4312
rfingers 7.12502
rthumb 16.3411 -77.7627
lclavicle 4.82053e-015 1.61016e-014
lhumerus -32.376 7.90574 77.0108
lradius 25.1541
lwrist -2.4788
lhand -18.3657 -14.3108
lfingers 7.12502
lthumb 7.91738 15.521
rfemur -27.0921 5.13965 19.7522
rtibia 9.57932
rfoot -18.8693 -8.37899
rtoes -27.2055
lfemur -26.4742 -8.06359 -19.9921
ltibia 10.2055
lfoot -9.57586 1.58325
ltoes -37.3227
92
root 6.4636 16.3327 31.5772 -153.347 2.61055 178.079
lowerback -26.5346 -2.15439 -6.76203
upperback -0.410647 -0.349735 -0.0460953
thorax 14.5319 -0.477865 3.75628
lowerneck -3.32984 -2.3594 -1.28713
upperneck 16.085 -2.84456 3.44361
head 5.45575 -0.927012 1.15677
rclavicle 5.91384e-015 -1.39149e-015
rhumerus -41.1778 -20.3533 -73.5938
rradius 34.3658
rwrist -2.15786
rhand -9.69696 -48.2995
rfingers 7.12502
rthumb 16.2754 -77.6365
lclavicle 5.91384e-015 -1.39149e-015
lhumerus -32.4129 7.89493 77.0225
lradius 25.2532
lwrist -2.71348
lhand -18.0951 -13.8796
lfingers 7.12502
lthumb 8.1786 15.9422
rfemur -27.2361 5.03377 19.8336
rtibia 9.73945
rfoot -18.9233 -8.30848
rtoes -27.4593
lfemur -26.6369 -8.24567 -19.8988
ltibia 10.4474
lfoot -9.77632 1.80894
ltoes -37.9436
